ply
format ascii 1.0
comment mview5 by Marc Racicot
comment 2016-03-20 18:38:44
element vertex 96
property float32 x
property float32 y
property float32 z
property uint8 red
property uint8 green
property uint8 blue
element face 48
property list uint8 uint32 vertex_indices
end_header
-0.052070 0.121636 0.025155 128 128 128
-0.052070 0.121636 -0.054667 128 128 128
-0.052070 0.041813 0.025155 128 128 128
-0.052070 0.041813 -0.054667 128 128 128
0.027753 0.121636 0.025155 128 128 128
0.027753 0.121636 -0.054667 128 128 128
-0.052070 0.121636 0.025155 128 128 128
-0.052070 0.121636 -0.054667 128 128 128
0.027753 0.121636 0.025155 128 128 128
-0.052070 0.121636 0.025155 128 128 128
0.027753 0.041813 0.025155 128 128 128
-0.052070 0.041813 0.025155 128 128 128
-0.052070 0.121636 -0.054667 128 128 128
-0.052070 0.121636 -0.134490 128 128 128
-0.052070 0.041813 -0.054667 128 128 128
-0.052070 0.041813 -0.134490 128 128 128
0.027753 0.121636 -0.054667 128 128 128
0.027753 0.121636 -0.134490 128 128 128
-0.052070 0.121636 -0.054667 128 128 128
-0.052070 0.121636 -0.134490 128 128 128
-0.052070 0.121636 -0.134490 128 128 128
0.027753 0.121636 -0.134490 128 128 128
-0.052070 0.041813 -0.134490 128 128 128
0.027753 0.041813 -0.134490 128 128 128
-0.052070 0.041813 0.025155 128 128 128
-0.052070 0.041813 -0.054667 128 128 128
-0.052070 -0.038009 0.025155 128 128 128
-0.052070 -0.038009 -0.054667 128 128 128
0.027753 -0.038009 -0.054667 128 128 128
0.027753 -0.038009 0.025155 128 128 128
-0.052070 -0.038009 -0.054667 128 128 128
-0.052070 -0.038009 0.025155 128 128 128
0.027753 0.041813 0.025155 128 128 128
-0.052070 0.041813 0.025155 128 128 128
0.027753 -0.038009 0.025155 128 128 128
-0.052070 -0.038009 0.025155 128 128 128
-0.052070 0.041813 -0.054667 128 128 128
-0.052070 0.041813 -0.134490 128 128 128
-0.052070 -0.038009 -0.054667 128 128 128
-0.052070 -0.038009 -0.134490 128 128 128
0.027753 -0.038009 -0.134490 128 128 128
0.027753 -0.038009 -0.054667 128 128 128
-0.052070 -0.038009 -0.134490 128 128 128
-0.052070 -0.038009 -0.054667 128 128 128
-0.052070 0.041813 -0.134490 128 128 128
0.027753 0.041813 -0.134490 128 128 128
-0.052070 -0.038009 -0.134490 128 128 128
0.027753 -0.038009 -0.134490 128 128 128
0.107575 0.121636 -0.054667 128 128 128
0.107575 0.121636 0.025155 128 128 128
0.107575 0.041813 -0.054667 128 128 128
0.107575 0.041813 0.025155 128 128 128
0.107575 0.121636 0.025155 128 128 128
0.107575 0.121636 -0.054667 128 128 128
0.027753 0.121636 0.025155 128 128 128
0.027753 0.121636 -0.054667 128 128 128
0.107575 0.121636 0.025155 128 128 128
0.027753 0.121636 0.025155 128 128 128
0.107575 0.041813 0.025155 128 128 128
0.027753 0.041813 0.025155 128 128 128
0.107575 0.121636 -0.134490 128 128 128
0.107575 0.121636 -0.054667 128 128 128
0.107575 0.041813 -0.134490 128 128 128
0.107575 0.041813 -0.054667 128 128 128
0.107575 0.121636 -0.054667 128 128 128
0.107575 0.121636 -0.134490 128 128 128
0.027753 0.121636 -0.054667 128 128 128
0.027753 0.121636 -0.134490 128 128 128
0.027753 0.121636 -0.134490 128 128 128
0.107575 0.121636 -0.134490 128 128 128
0.027753 0.041813 -0.134490 128 128 128
0.107575 0.041813 -0.134490 128 128 128
0.107575 0.041813 -0.054667 128 128 128
0.107575 0.041813 0.025155 128 128 128
0.107575 -0.038009 -0.054667 128 128 128
0.107575 -0.038009 0.025155 128 128 128
0.107575 -0.038009 -0.054667 128 128 128
0.107575 -0.038009 0.025155 128 128 128
0.027753 -0.038009 -0.054667 128 128 128
0.027753 -0.038009 0.025155 128 128 128
0.107575 0.041813 0.025155 128 128 128
0.027753 0.041813 0.025155 128 128 128
0.107575 -0.038009 0.025155 128 128 128
0.027753 -0.038009 0.025155 128 128 128
0.107575 0.041813 -0.134490 128 128 128
0.107575 0.041813 -0.054667 128 128 128
0.107575 -0.038009 -0.134490 128 128 128
0.107575 -0.038009 -0.054667 128 128 128
0.107575 -0.038009 -0.134490 128 128 128
0.107575 -0.038009 -0.054667 128 128 128
0.027753 -0.038009 -0.134490 128 128 128
0.027753 -0.038009 -0.054667 128 128 128
0.027753 0.041813 -0.134490 128 128 128
0.107575 0.041813 -0.134490 128 128 128
0.027753 -0.038009 -0.134490 128 128 128
0.107575 -0.038009 -0.134490 128 128 128
3 0 1 3
3 3 2 0
3 4 5 7
3 7 6 4
3 8 9 11
3 11 10 8
3 12 13 15
3 15 14 12
3 16 17 19
3 19 18 16
3 20 21 23
3 23 22 20
3 24 25 27
3 27 26 24
3 28 29 31
3 31 30 28
3 32 33 35
3 35 34 32
3 36 37 39
3 39 38 36
3 40 41 43
3 43 42 40
3 44 45 47
3 47 46 44
3 48 49 51
3 51 50 48
3 52 53 55
3 55 54 52
3 56 57 59
3 59 58 56
3 60 61 63
3 63 62 60
3 64 65 67
3 67 66 64
3 68 69 71
3 71 70 68
3 72 73 75
3 75 74 72
3 76 77 79
3 79 78 76
3 80 81 83
3 83 82 80
3 84 85 87
3 87 86 84
3 88 89 91
3 91 90 88
3 92 93 95
3 95 94 92
