ply
format ascii 1.0
comment mview5 by Marc Racicot
comment 2016-03-20 18:38:44
element vertex 320
property float32 x
property float32 y
property float32 z
property uint8 red
property uint8 green
property uint8 blue
element face 160
property list uint8 uint32 vertex_indices
end_header
-0.052070 0.121636 -0.014756 128 128 128
-0.052070 0.121636 -0.054667 128 128 128
-0.052070 0.081725 -0.014756 128 128 128
-0.052070 0.081725 -0.054667 128 128 128
-0.012159 0.121636 -0.014756 128 128 128
-0.012159 0.121636 -0.054667 128 128 128
-0.052070 0.121636 -0.014756 128 128 128
-0.052070 0.121636 -0.054667 128 128 128
-0.012159 0.081725 -0.054667 1 1 0
-0.012159 0.081725 -0.014756 1 0 0
-0.052070 0.081725 -0.054667 0 0 0
-0.052070 0.081725 -0.014756 0 0 0
-0.012159 0.121636 -0.014756 0 0 0
-0.052070 0.121636 -0.014756 0 0 0
-0.012159 0.081725 -0.014756 1 0 0
-0.052070 0.081725 -0.014756 0 0 0
-0.052070 0.121636 -0.054667 128 128 128
-0.052070 0.121636 -0.094579 128 128 128
-0.052070 0.081725 -0.054667 128 128 128
-0.052070 0.081725 -0.094579 128 128 128
-0.012159 0.121636 -0.054667 128 128 128
-0.012159 0.121636 -0.094579 128 128 128
-0.052070 0.121636 -0.054667 128 128 128
-0.052070 0.121636 -0.094579 128 128 128
-0.012159 0.081725 -0.094579 130 110 67
-0.012159 0.081725 -0.054667 1 1 0
-0.052070 0.081725 -0.094579 0 0 0
-0.052070 0.081725 -0.054667 0 0 0
-0.052070 0.121636 -0.094579 0 0 0
-0.012159 0.121636 -0.094579 1 2 0
-0.052070 0.081725 -0.094579 0 0 0
-0.012159 0.081725 -0.094579 130 110 67
-0.052070 0.001902 0.025155 128 128 128
-0.052070 0.001902 -0.014756 128 128 128
-0.052070 -0.038009 0.025155 128 128 128
-0.052070 -0.038009 -0.014756 128 128 128
-0.012159 0.001902 0.025155 43 35 28
-0.012159 0.001902 -0.014756 4 1 0
-0.052070 0.001902 0.025155 255 0 0
-0.052070 0.001902 -0.014756 0 0 0
-0.012159 -0.038009 -0.014756 128 128 128
-0.012159 -0.038009 0.025155 128 128 128
-0.052070 -0.038009 -0.014756 128 128 128
-0.052070 -0.038009 0.025155 128 128 128
-0.012159 0.001902 0.025155 128 128 128
-0.052070 0.001902 0.025155 128 128 128
-0.012159 -0.038009 0.025155 128 128 128
-0.052070 -0.038009 0.025155 128 128 128
-0.052070 0.001902 -0.014756 128 128 128
-0.052070 0.001902 -0.054667 128 128 128
-0.052070 -0.038009 -0.014756 128 128 128
-0.052070 -0.038009 -0.054667 128 128 128
-0.012159 0.001902 -0.014756 4 1 0
-0.012159 0.001902 -0.054667 2 0 0
-0.052070 0.001902 -0.014756 0 0 0
-0.052070 0.001902 -0.054667 1 3 0
-0.012159 -0.038009 -0.054667 128 128 128
-0.012159 -0.038009 -0.014756 128 128 128
-0.052070 -0.038009 -0.054667 128 128 128
-0.052070 -0.038009 -0.014756 128 128 128
-0.052070 0.001902 -0.054667 128 128 128
-0.052070 0.001902 -0.094579 128 128 128
-0.052070 -0.038009 -0.054667 128 128 128
-0.052070 -0.038009 -0.094579 128 128 128
-0.012159 0.001902 -0.054667 2 0 0
-0.012159 0.001902 -0.094579 1 0 0
-0.052070 0.001902 -0.054667 1 3 0
-0.052070 0.001902 -0.094579 1 1 0
-0.012159 -0.038009 -0.094579 128 128 128
-0.012159 -0.038009 -0.054667 128 128 128
-0.052070 -0.038009 -0.094579 128 128 128
-0.052070 -0.038009 -0.054667 128 128 128
-0.052070 0.001902 -0.094579 128 128 128
-0.052070 0.001902 -0.134490 128 128 128
-0.052070 -0.038009 -0.094579 128 128 128
-0.052070 -0.038009 -0.134490 128 128 128
-0.012159 0.001902 -0.094579 1 0 0
-0.012159 0.001902 -0.134490 85 67 41
-0.052070 0.001902 -0.094579 1 1 0
-0.052070 0.001902 -0.134490 0 1 0
-0.012159 -0.038009 -0.134490 128 128 128
-0.012159 -0.038009 -0.094579 128 128 128
-0.052070 -0.038009 -0.134490 128 128 128
-0.052070 -0.038009 -0.094579 128 128 128
-0.052070 0.001902 -0.134490 128 128 128
-0.012159 0.001902 -0.134490 128 128 128
-0.052070 -0.038009 -0.134490 128 128 128
-0.012159 -0.038009 -0.134490 128 128 128
0.027753 0.121636 -0.014756 128 128 128
0.027753 0.121636 -0.054667 128 128 128
-0.012159 0.121636 -0.014756 128 128 128
-0.012159 0.121636 -0.054667 128 128 128
0.027753 0.121636 -0.014756 0 0 0
-0.012159 0.121636 -0.014756 0 0 0
0.027753 0.081725 -0.014756 131 105 66
-0.012159 0.081725 -0.014756 1 0 0
0.027753 0.121636 -0.054667 128 128 128
0.027753 0.121636 -0.094579 128 128 128
-0.012159 0.121636 -0.054667 128 128 128
-0.012159 0.121636 -0.094579 128 128 128
-0.012159 0.121636 -0.094579 1 2 0
0.027753 0.121636 -0.094579 0 0 0
-0.012159 0.081725 -0.094579 130 110 67
0.027753 0.081725 -0.094579 136 112 72
-0.012159 0.081725 -0.014756 1 0 0
-0.012159 0.081725 -0.054667 1 1 0
-0.012159 0.041813 -0.014756 1 0 0
-0.012159 0.041813 -0.054667 0 0 0
0.027753 0.081725 -0.014756 131 105 66
-0.012159 0.081725 -0.014756 1 0 0
0.027753 0.041813 -0.014756 4 2 1
-0.012159 0.041813 -0.014756 1 0 0
-0.012159 0.081725 -0.054667 1 1 0
-0.012159 0.081725 -0.094579 130 110 67
-0.012159 0.041813 -0.054667 0 0 0
-0.012159 0.041813 -0.094579 5 0 0
-0.012159 0.081725 -0.094579 130 110 67
0.027753 0.081725 -0.094579 136 112 72
-0.012159 0.041813 -0.094579 5 0 0
0.027753 0.041813 -0.094579 110 81 45
-0.012159 0.041813 -0.014756 1 0 0
-0.012159 0.041813 -0.054667 0 0 0
-0.012159 0.001902 -0.014756 4 1 0
-0.012159 0.001902 -0.054667 2 0 0
0.027753 0.041813 -0.014756 4 2 1
-0.012159 0.041813 -0.014756 1 0 0
0.027753 0.001902 -0.014756 50 30 9
-0.012159 0.001902 -0.014756 4 1 0
-0.012159 0.041813 -0.054667 0 0 0
-0.012159 0.041813 -0.094579 5 0 0
-0.012159 0.001902 -0.054667 2 0 0
-0.012159 0.001902 -0.094579 1 0 0
-0.012159 0.041813 -0.094579 5 0 0
0.027753 0.041813 -0.094579 110 81 45
-0.012159 0.001902 -0.094579 1 0 0
0.027753 0.001902 -0.094579 175 141 93
0.027753 0.001902 0.025155 146 116 69
0.027753 0.001902 -0.014756 50 30 9
-0.012159 0.001902 0.025155 43 35 28
-0.012159 0.001902 -0.014756 4 1 0
0.027753 -0.038009 -0.014756 128 128 128
0.027753 -0.038009 0.025155 128 128 128
-0.012159 -0.038009 -0.014756 128 128 128
-0.012159 -0.038009 0.025155 128 128 128
0.027753 0.001902 0.025155 128 128 128
-0.012159 0.001902 0.025155 128 128 128
0.027753 -0.038009 0.025155 128 128 128
-0.012159 -0.038009 0.025155 128 128 128
0.027753 -0.038009 -0.054667 128 128 128
0.027753 -0.038009 -0.014756 128 128 128
-0.012159 -0.038009 -0.054667 128 128 128
-0.012159 -0.038009 -0.014756 128 128 128
0.027753 -0.038009 -0.094579 128 128 128
0.027753 -0.038009 -0.054667 128 128 128
-0.012159 -0.038009 -0.094579 128 128 128
-0.012159 -0.038009 -0.054667 128 128 128
0.027753 0.001902 -0.094579 175 141 93
0.027753 0.001902 -0.134490 147 113 68
-0.012159 0.001902 -0.094579 1 0 0
-0.012159 0.001902 -0.134490 85 67 41
0.027753 -0.038009 -0.134490 128 128 128
0.027753 -0.038009 -0.094579 128 128 128
-0.012159 -0.038009 -0.134490 128 128 128
-0.012159 -0.038009 -0.094579 128 128 128
-0.012159 0.001902 -0.134490 128 128 128
0.027753 0.001902 -0.134490 128 128 128
-0.012159 -0.038009 -0.134490 128 128 128
0.027753 -0.038009 -0.134490 128 128 128
0.067664 0.121636 -0.054667 0 0 0
0.067664 0.121636 -0.014756 0 0 0
0.067664 0.081725 -0.054667 2 0 0
0.067664 0.081725 -0.014756 2 0 0
0.067664 0.121636 -0.014756 128 128 128
0.067664 0.121636 -0.054667 128 128 128
0.027753 0.121636 -0.014756 128 128 128
0.027753 0.121636 -0.054667 128 128 128
0.067664 0.121636 -0.014756 0 0 0
0.027753 0.121636 -0.014756 0 0 0
0.067664 0.081725 -0.014756 2 0 0
0.027753 0.081725 -0.014756 131 105 66
0.067664 0.121636 -0.094579 0 0 0
0.067664 0.121636 -0.054667 0 0 0
0.067664 0.081725 -0.094579 2 0 0
0.067664 0.081725 -0.054667 2 0 0
0.067664 0.121636 -0.054667 128 128 128
0.067664 0.121636 -0.094579 128 128 128
0.027753 0.121636 -0.054667 128 128 128
0.027753 0.121636 -0.094579 128 128 128
0.027753 0.121636 -0.094579 0 0 0
0.067664 0.121636 -0.094579 0 0 0
0.027753 0.081725 -0.094579 136 112 72
0.067664 0.081725 -0.094579 2 0 0
0.067664 0.081725 -0.014756 2 0 0
0.027753 0.081725 -0.014756 131 105 66
0.067664 0.041813 -0.014756 138 107 66
0.027753 0.041813 -0.014756 4 2 1
0.027753 0.081725 -0.094579 136 112 72
0.067664 0.081725 -0.094579 2 0 0
0.027753 0.041813 -0.094579 110 81 45
0.067664 0.041813 -0.094579 86 61 33
0.067664 0.041813 -0.014756 138 107 66
0.027753 0.041813 -0.014756 4 2 1
0.067664 0.001902 -0.014756 150 111 68
0.027753 0.001902 -0.014756 50 30 9
0.027753 0.041813 -0.094579 110 81 45
0.067664 0.041813 -0.094579 86 61 33
0.027753 0.001902 -0.094579 175 141 93
0.067664 0.001902 -0.094579 69 41 13
0.067664 0.001902 -0.014756 150 111 68
0.067664 0.001902 0.025155 148 117 79
0.067664 -0.038009 -0.014756 15 7 8
0.067664 -0.038009 0.025155 32 23 19
0.067664 0.001902 0.025155 148 117 79
0.067664 0.001902 -0.014756 150 111 68
0.027753 0.001902 0.025155 146 116 69
0.027753 0.001902 -0.014756 50 30 9
0.067664 -0.038009 -0.014756 128 128 128
0.067664 -0.038009 0.025155 128 128 128
0.027753 -0.038009 -0.014756 128 128 128
0.027753 -0.038009 0.025155 128 128 128
0.067664 0.001902 0.025155 128 128 128
0.027753 0.001902 0.025155 128 128 128
0.067664 -0.038009 0.025155 128 128 128
0.027753 -0.038009 0.025155 128 128 128
0.067664 -0.038009 -0.054667 128 128 128
0.067664 -0.038009 -0.014756 128 128 128
0.027753 -0.038009 -0.054667 128 128 128
0.027753 -0.038009 -0.014756 128 128 128
0.067664 -0.038009 -0.094579 128 128 128
0.067664 -0.038009 -0.054667 128 128 128
0.027753 -0.038009 -0.094579 128 128 128
0.027753 -0.038009 -0.054667 128 128 128
0.067664 0.001902 -0.094579 69 41 13
0.067664 0.001902 -0.134490 96 69 41
0.027753 0.001902 -0.094579 175 141 93
0.027753 0.001902 -0.134490 147 113 68
0.067664 -0.038009 -0.134490 128 128 128
0.067664 -0.038009 -0.094579 128 128 128
0.027753 -0.038009 -0.134490 128 128 128
0.027753 -0.038009 -0.094579 128 128 128
0.027753 0.001902 -0.134490 128 128 128
0.067664 0.001902 -0.134490 128 128 128
0.027753 -0.038009 -0.134490 128 128 128
0.067664 -0.038009 -0.134490 128 128 128
0.107575 0.081725 -0.054667 128 128 128
0.107575 0.081725 -0.014756 128 128 128
0.107575 0.041813 -0.054667 128 128 128
0.107575 0.041813 -0.014756 128 128 128
0.107575 0.081725 -0.014756 1 0 0
0.107575 0.081725 -0.054667 0 0 0
0.067664 0.081725 -0.014756 2 0 0
0.067664 0.081725 -0.054667 2 0 0
0.107575 0.081725 -0.014756 1 0 0
0.067664 0.081725 -0.014756 2 0 0
0.107575 0.041813 -0.014756 0 0 1
0.067664 0.041813 -0.014756 138 107 66
0.107575 0.081725 -0.094579 128 128 128
0.107575 0.081725 -0.054667 128 128 128
0.107575 0.041813 -0.094579 128 128 128
0.107575 0.041813 -0.054667 128 128 128
0.107575 0.081725 -0.054667 0 0 0
0.107575 0.081725 -0.094579 0 1 0
0.067664 0.081725 -0.054667 2 0 0
0.067664 0.081725 -0.094579 2 0 0
0.067664 0.081725 -0.094579 2 0 0
0.107575 0.081725 -0.094579 0 1 0
0.067664 0.041813 -0.094579 86 61 33
0.107575 0.041813 -0.094579 0 0 0
0.107575 0.041813 -0.054667 128 128 128
0.107575 0.041813 -0.014756 128 128 128
0.107575 0.001902 -0.054667 128 128 128
0.107575 0.001902 -0.014756 128 128 128
0.107575 0.041813 -0.014756 0 0 1
0.067664 0.041813 -0.014756 138 107 66
0.107575 0.001902 -0.014756 1 0 0
0.067664 0.001902 -0.014756 150 111 68
0.107575 0.041813 -0.094579 128 128 128
0.107575 0.041813 -0.054667 128 128 128
0.107575 0.001902 -0.094579 128 128 128
0.107575 0.001902 -0.054667 128 128 128
0.067664 0.041813 -0.094579 86 61 33
0.107575 0.041813 -0.094579 0 0 0
0.067664 0.001902 -0.094579 69 41 13
0.107575 0.001902 -0.094579 0 0 0
0.107575 0.001902 -0.054667 128 128 128
0.107575 0.001902 -0.014756 128 128 128
0.107575 -0.038009 -0.054667 128 128 128
0.107575 -0.038009 -0.014756 128 128 128
0.107575 -0.038009 -0.054667 128 128 128
0.107575 -0.038009 -0.014756 128 128 128
0.067664 -0.038009 -0.054667 128 128 128
0.067664 -0.038009 -0.014756 128 128 128
0.107575 0.001902 -0.014756 1 0 0
0.067664 0.001902 -0.014756 150 111 68
0.107575 -0.038009 -0.014756 16 11 10
0.067664 -0.038009 -0.014756 15 7 8
0.107575 0.001902 -0.094579 128 128 128
0.107575 0.001902 -0.054667 128 128 128
0.107575 -0.038009 -0.094579 128 128 128
0.107575 -0.038009 -0.054667 128 128 128
0.107575 -0.038009 -0.094579 128 128 128
0.107575 -0.038009 -0.054667 128 128 128
0.067664 -0.038009 -0.094579 128 128 128
0.067664 -0.038009 -0.054667 128 128 128
0.107575 0.001902 -0.134490 128 128 128
0.107575 0.001902 -0.094579 128 128 128
0.107575 -0.038009 -0.134490 128 128 128
0.107575 -0.038009 -0.094579 128 128 128
0.107575 0.001902 -0.094579 0 0 0
0.107575 0.001902 -0.134490 0 0 0
0.067664 0.001902 -0.094579 69 41 13
0.067664 0.001902 -0.134490 96 69 41
0.107575 -0.038009 -0.134490 128 128 128
0.107575 -0.038009 -0.094579 128 128 128
0.067664 -0.038009 -0.134490 128 128 128
0.067664 -0.038009 -0.094579 128 128 128
0.067664 0.001902 -0.134490 128 128 128
0.107575 0.001902 -0.134490 128 128 128
0.067664 -0.038009 -0.134490 128 128 128
0.107575 -0.038009 -0.134490 128 128 128
3 0 1 3
3 3 2 0
3 4 5 7
3 7 6 4
3 8 9 11
3 11 10 8
3 12 13 15
3 15 14 12
3 16 17 19
3 19 18 16
3 20 21 23
3 23 22 20
3 24 25 27
3 27 26 24
3 28 29 31
3 31 30 28
3 32 33 35
3 35 34 32
3 36 37 39
3 39 38 36
3 40 41 43
3 43 42 40
3 44 45 47
3 47 46 44
3 48 49 51
3 51 50 48
3 52 53 55
3 55 54 52
3 56 57 59
3 59 58 56
3 60 61 63
3 63 62 60
3 64 65 67
3 67 66 64
3 68 69 71
3 71 70 68
3 72 73 75
3 75 74 72
3 76 77 79
3 79 78 76
3 80 81 83
3 83 82 80
3 84 85 87
3 87 86 84
3 88 89 91
3 91 90 88
3 92 93 95
3 95 94 92
3 96 97 99
3 99 98 96
3 100 101 103
3 103 102 100
3 104 105 107
3 107 106 104
3 108 109 111
3 111 110 108
3 112 113 115
3 115 114 112
3 116 117 119
3 119 118 116
3 120 121 123
3 123 122 120
3 124 125 127
3 127 126 124
3 128 129 131
3 131 130 128
3 132 133 135
3 135 134 132
3 136 137 139
3 139 138 136
3 140 141 143
3 143 142 140
3 144 145 147
3 147 146 144
3 148 149 151
3 151 150 148
3 152 153 155
3 155 154 152
3 156 157 159
3 159 158 156
3 160 161 163
3 163 162 160
3 164 165 167
3 167 166 164
3 168 169 171
3 171 170 168
3 172 173 175
3 175 174 172
3 176 177 179
3 179 178 176
3 180 181 183
3 183 182 180
3 184 185 187
3 187 186 184
3 188 189 191
3 191 190 188
3 192 193 195
3 195 194 192
3 196 197 199
3 199 198 196
3 200 201 203
3 203 202 200
3 204 205 207
3 207 206 204
3 208 209 211
3 211 210 208
3 212 213 215
3 215 214 212
3 216 217 219
3 219 218 216
3 220 221 223
3 223 222 220
3 224 225 227
3 227 226 224
3 228 229 231
3 231 230 228
3 232 233 235
3 235 234 232
3 236 237 239
3 239 238 236
3 240 241 243
3 243 242 240
3 244 245 247
3 247 246 244
3 248 249 251
3 251 250 248
3 252 253 255
3 255 254 252
3 256 257 259
3 259 258 256
3 260 261 263
3 263 262 260
3 264 265 267
3 267 266 264
3 268 269 271
3 271 270 268
3 272 273 275
3 275 274 272
3 276 277 279
3 279 278 276
3 280 281 283
3 283 282 280
3 284 285 287
3 287 286 284
3 288 289 291
3 291 290 288
3 292 293 295
3 295 294 292
3 296 297 299
3 299 298 296
3 300 301 303
3 303 302 300
3 304 305 307
3 307 306 304
3 308 309 311
3 311 310 308
3 312 313 315
3 315 314 312
3 316 317 319
3 319 318 316
