ply
format ascii 1.0
comment mview5 by Marc Racicot
comment 2016-03-20 18:38:44
element vertex 24
property float32 x
property float32 y
property float32 z
property uint8 red
property uint8 green
property uint8 blue
element face 12
property list uint8 uint32 vertex_indices
end_header
-0.052070 0.121636 0.025155 128 128 128
-0.052070 0.121636 -0.134490 128 128 128
-0.052070 -0.038009 0.025155 128 128 128
-0.052070 -0.038009 -0.134490 128 128 128
0.107575 0.121636 -0.134490 128 128 128
0.107575 0.121636 0.025155 128 128 128
0.107575 -0.038009 -0.134490 128 128 128
0.107575 -0.038009 0.025155 128 128 128
0.107575 0.121636 0.025155 128 128 128
0.107575 0.121636 -0.134490 128 128 128
-0.052070 0.121636 0.025155 128 128 128
-0.052070 0.121636 -0.134490 128 128 128
0.107575 -0.038009 -0.134490 128 128 128
0.107575 -0.038009 0.025155 128 128 128
-0.052070 -0.038009 -0.134490 128 128 128
-0.052070 -0.038009 0.025155 128 128 128
0.107575 0.121636 0.025155 128 128 128
-0.052070 0.121636 0.025155 128 128 128
0.107575 -0.038009 0.025155 128 128 128
-0.052070 -0.038009 0.025155 128 128 128
-0.052070 0.121636 -0.134490 128 128 128
0.107575 0.121636 -0.134490 128 128 128
-0.052070 -0.038009 -0.134490 128 128 128
0.107575 -0.038009 -0.134490 128 128 128
3 0 1 3
3 3 2 0
3 4 5 7
3 7 6 4
3 8 9 11
3 11 10 8
3 12 13 15
3 15 14 12
3 16 17 19
3 19 18 16
3 20 21 23
3 23 22 20
